<svg id="iconHbo" xmlns="http://www.w3.org/2000/svg" viewBox="0 0 180 180" class="components/ChannelsIcons--channelName"><path d="M41.96 65.35v22.79H31.15V65.35H14v61.27h17.15v-23.78h10.81v23.78H58.6V65.35z"></path><path d="M134.88 108.12c6.77 0 12.26-5.49 12.26-12.26s-5.49-12.26-12.26-12.26-12.26 5.49-12.26 12.26 5.49 12.26 12.26 12.26m-15.6-12.26c0-8.61 6.98-15.6 15.6-15.6 8.61 0 15.6 6.98 15.6 15.6 0 8.61-6.98 15.6-15.6 15.6-8.61-.01-15.6-6.99-15.6-15.6m-21.71 0c1.93-.24 5.15-2.45 6.28-3.86-.4 1.75-.43 6.8.04 8.55-1.3-2-4.36-4.45-6.32-4.69M86.36 79.34c2.45 0 4.38 2.42 4.38 5.18s-1.93 5.18-4.38 5.18h-8.42V79.34h8.42zm-.04 23.01c2.45 0 4.38 2.42 4.38 5.18s-1.93 5.18-4.38 5.18H77.9v-10.36h8.42zm48.55 24.93c17.16-.01 31.13-14.27 31.13-31.44 0-17.53-13.96-31.15-31.13-31.16-17.14-.01-25.91 12.61-28.07 17.7.02-7.65-7.52-16.67-16.33-16.68h-28.4v61.27h26.48c10.68 0 18.28-9.25 18.29-17.18 2.43 5 10.89 17.49 28.03 17.49"></path><path d="M161.37 69.21v-1.35h.9c.46 0 .95.1.95.64 0 .67-.5.71-1.06.71h-.79zm0 .56h.76l1.15 1.89h.74l-1.24-1.92c.64-.08 1.13-.42 1.13-1.2 0-.86-.51-1.24-1.54-1.24h-1.66v4.37h.66v-1.9zm.8 3.49c2.06 0 3.82-1.6 3.82-3.8 0-2.17-1.76-3.78-3.82-3.78-2.08 0-3.85 1.6-3.85 3.78 0 2.2 1.77 3.8 3.85 3.8m-3.08-3.79c0-1.79 1.35-3.15 3.09-3.15 1.71 0 3.06 1.35 3.06 3.15 0 1.82-1.35 3.16-3.06 3.16-1.74 0-3.09-1.34-3.09-3.16"></path></svg>